<mxfile host="app.diagrams.net" modified="2023-11-21T14:49:51.888Z" agent="Mozilla/5.0 (X11; Linux x86_64; rv:109.0) Gecko/20100101 Firefox/119.0" etag="_SHPJGthqZCRK_gOQErh" version="22.1.3" type="device">
  <diagram name="Page-1" id="fnooB2c3y_FCIgcRwQ8_">
    <mxGraphModel dx="1092" dy="711" grid="0" gridSize="10" guides="1" tooltips="1" connect="1" arrows="1" fold="1" page="1" pageScale="1" pageWidth="827" pageHeight="1169" background="none" math="0" shadow="0">
      <root>
        <mxCell id="0" />
        <mxCell id="1" parent="0" />
        <mxCell id="QMHYmS7PciH-9QfhDvw--1" value="Felhasználó" style="shape=umlActor;verticalLabelPosition=bottom;verticalAlign=top;outlineConnect=0;labelBackgroundColor=none;fillColor=#BC6C25;strokeColor=#DDA15E;fontColor=#000000;html=1;align=center;spacingTop=-40;spacingLeft=-100;rounded=0;" parent="1" vertex="1">
          <mxGeometry x="80" y="290" width="30" height="60" as="geometry" />
        </mxCell>
        <mxCell id="QMHYmS7PciH-9QfhDvw--2" value="Kilépés" style="ellipse;whiteSpace=wrap;html=1;labelBackgroundColor=none;fillColor=#BC6C25;strokeColor=#DDA15E;fontColor=#FEFAE0;rounded=0;" parent="1" vertex="1">
          <mxGeometry x="35" y="100" width="120" height="80" as="geometry" />
        </mxCell>
        <mxCell id="QMHYmS7PciH-9QfhDvw--3" value="" style="endArrow=none;html=1;rounded=0;exitX=0.5;exitY=0;exitDx=0;exitDy=0;exitPerimeter=0;entryX=0.5;entryY=1;entryDx=0;entryDy=0;labelBackgroundColor=none;strokeColor=#DDA15E;fontColor=default;" parent="1" source="QMHYmS7PciH-9QfhDvw--1" target="QMHYmS7PciH-9QfhDvw--2" edge="1">
          <mxGeometry width="50" height="50" relative="1" as="geometry">
            <mxPoint x="90" y="220" as="sourcePoint" />
            <mxPoint x="140" y="170" as="targetPoint" />
          </mxGeometry>
        </mxCell>
        <mxCell id="QMHYmS7PciH-9QfhDvw--4" value="&lt;div&gt;Mentés&lt;/div&gt;" style="ellipse;whiteSpace=wrap;html=1;labelBackgroundColor=none;fillColor=#BC6C25;strokeColor=#DDA15E;fontColor=#FEFAE0;rounded=0;" parent="1" vertex="1">
          <mxGeometry x="300" y="70" width="120" height="80" as="geometry" />
        </mxCell>
        <mxCell id="QMHYmS7PciH-9QfhDvw--5" value="Betöltés" style="ellipse;whiteSpace=wrap;html=1;labelBackgroundColor=none;fillColor=#BC6C25;strokeColor=#DDA15E;fontColor=#FEFAE0;rounded=0;" parent="1" vertex="1">
          <mxGeometry x="294" y="220" width="120" height="80" as="geometry" />
        </mxCell>
        <mxCell id="QMHYmS7PciH-9QfhDvw--6" value="Új játék" style="ellipse;whiteSpace=wrap;html=1;labelBackgroundColor=none;fillColor=#BC6C25;strokeColor=#DDA15E;fontColor=#FEFAE0;rounded=0;" parent="1" vertex="1">
          <mxGeometry x="440" y="290" width="120" height="80" as="geometry" />
        </mxCell>
        <mxCell id="QMHYmS7PciH-9QfhDvw--7" value="" style="endArrow=none;html=1;rounded=0;entryX=0;entryY=0.5;entryDx=0;entryDy=0;labelBackgroundColor=none;strokeColor=#DDA15E;fontColor=default;" parent="1" source="QMHYmS7PciH-9QfhDvw--1" target="QMHYmS7PciH-9QfhDvw--6" edge="1">
          <mxGeometry width="50" height="50" relative="1" as="geometry">
            <mxPoint x="100" y="380" as="sourcePoint" />
            <mxPoint x="150" y="330" as="targetPoint" />
          </mxGeometry>
        </mxCell>
        <mxCell id="QMHYmS7PciH-9QfhDvw--9" value="" style="endArrow=none;html=1;rounded=0;entryX=0.007;entryY=0.683;entryDx=0;entryDy=0;entryPerimeter=0;labelBackgroundColor=none;strokeColor=#DDA15E;fontColor=default;" parent="1" source="QMHYmS7PciH-9QfhDvw--1" target="QMHYmS7PciH-9QfhDvw--5" edge="1">
          <mxGeometry width="50" height="50" relative="1" as="geometry">
            <mxPoint x="110" y="360" as="sourcePoint" />
            <mxPoint x="160" y="310" as="targetPoint" />
          </mxGeometry>
        </mxCell>
        <mxCell id="QMHYmS7PciH-9QfhDvw--10" value="" style="endArrow=none;html=1;rounded=0;entryX=0.021;entryY=0.683;entryDx=0;entryDy=0;entryPerimeter=0;labelBackgroundColor=none;strokeColor=#DDA15E;fontColor=default;" parent="1" source="QMHYmS7PciH-9QfhDvw--1" target="QMHYmS7PciH-9QfhDvw--4" edge="1">
          <mxGeometry width="50" height="50" relative="1" as="geometry">
            <mxPoint x="150" y="240" as="sourcePoint" />
            <mxPoint x="200" y="190" as="targetPoint" />
          </mxGeometry>
        </mxCell>
        <mxCell id="QMHYmS7PciH-9QfhDvw--13" value="&lt;div&gt;precedes&lt;/div&gt;" style="endArrow=open;endSize=12;dashed=1;html=1;rounded=0;exitX=0.45;exitY=-0.037;exitDx=0;exitDy=0;entryX=0.382;entryY=0.965;entryDx=0;entryDy=0;entryPerimeter=0;exitPerimeter=0;labelBackgroundColor=none;strokeColor=#DDA15E;fontColor=#000000;" parent="1" source="QMHYmS7PciH-9QfhDvw--5" target="QMHYmS7PciH-9QfhDvw--4" edge="1">
          <mxGeometry width="160" relative="1" as="geometry">
            <mxPoint x="320" y="240" as="sourcePoint" />
            <mxPoint x="480" y="240" as="targetPoint" />
          </mxGeometry>
        </mxCell>
        <mxCell id="QMHYmS7PciH-9QfhDvw--14" value="&lt;div&gt;precedes&lt;/div&gt;" style="endArrow=open;endSize=12;dashed=1;html=1;rounded=0;exitX=0.433;exitY=0;exitDx=0;exitDy=0;entryX=0.931;entryY=0.881;entryDx=0;entryDy=0;entryPerimeter=0;exitPerimeter=0;labelBackgroundColor=none;strokeColor=#DDA15E;fontColor=#000000;" parent="1" source="QMHYmS7PciH-9QfhDvw--6" target="QMHYmS7PciH-9QfhDvw--4" edge="1">
          <mxGeometry width="160" relative="1" as="geometry">
            <mxPoint x="300" y="392" as="sourcePoint" />
            <mxPoint x="324" y="270" as="targetPoint" />
          </mxGeometry>
        </mxCell>
        <mxCell id="QMHYmS7PciH-9QfhDvw--17" value="Parancsok kiválasztása" style="ellipse;whiteSpace=wrap;html=1;labelBackgroundColor=none;fillColor=#BC6C25;strokeColor=#DDA15E;fontColor=#FEFAE0;rounded=0;" parent="1" vertex="1">
          <mxGeometry x="240" y="400" width="120" height="80" as="geometry" />
        </mxCell>
        <mxCell id="QMHYmS7PciH-9QfhDvw--18" value="&lt;div&gt;Rögzítés&lt;/div&gt;" style="ellipse;whiteSpace=wrap;html=1;labelBackgroundColor=none;fillColor=#BC6C25;strokeColor=#DDA15E;fontColor=#FEFAE0;rounded=0;" parent="1" vertex="1">
          <mxGeometry x="270" y="530" width="120" height="80" as="geometry" />
        </mxCell>
        <mxCell id="QMHYmS7PciH-9QfhDvw--24" value="&lt;div&gt;precedes&lt;/div&gt;" style="endArrow=open;endSize=12;dashed=1;html=1;rounded=0;exitX=0.494;exitY=1.079;exitDx=0;exitDy=0;entryX=0.681;entryY=0.1;entryDx=0;entryDy=0;entryPerimeter=0;exitPerimeter=0;labelBackgroundColor=none;strokeColor=#DDA15E;fontColor=#000000;" parent="1" source="QMHYmS7PciH-9QfhDvw--5" target="QMHYmS7PciH-9QfhDvw--17" edge="1">
          <mxGeometry width="160" relative="1" as="geometry">
            <mxPoint x="358" y="400" as="sourcePoint" />
            <mxPoint x="290" y="287" as="targetPoint" />
          </mxGeometry>
        </mxCell>
        <mxCell id="QMHYmS7PciH-9QfhDvw--25" value="&lt;div&gt;precedes&lt;/div&gt;" style="endArrow=open;endSize=12;dashed=1;html=1;rounded=0;exitX=0.063;exitY=0.798;exitDx=0;exitDy=0;exitPerimeter=0;labelBackgroundColor=none;strokeColor=#DDA15E;fontColor=#000000;" parent="1" source="QMHYmS7PciH-9QfhDvw--6" target="QMHYmS7PciH-9QfhDvw--17" edge="1">
          <mxGeometry width="160" relative="1" as="geometry">
            <mxPoint x="440" y="376.5" as="sourcePoint" />
            <mxPoint x="372" y="263.5" as="targetPoint" />
          </mxGeometry>
        </mxCell>
        <mxCell id="QMHYmS7PciH-9QfhDvw--26" value="" style="endArrow=none;html=1;rounded=0;entryX=0.028;entryY=0.298;entryDx=0;entryDy=0;entryPerimeter=0;labelBackgroundColor=none;strokeColor=#DDA15E;fontColor=default;" parent="1" source="QMHYmS7PciH-9QfhDvw--1" target="QMHYmS7PciH-9QfhDvw--17" edge="1">
          <mxGeometry width="50" height="50" relative="1" as="geometry">
            <mxPoint x="120" y="330" as="sourcePoint" />
            <mxPoint x="450" y="340" as="targetPoint" />
          </mxGeometry>
        </mxCell>
        <mxCell id="QMHYmS7PciH-9QfhDvw--27" value="" style="endArrow=none;html=1;rounded=0;entryX=0.222;entryY=0.079;entryDx=0;entryDy=0;entryPerimeter=0;labelBackgroundColor=none;strokeColor=#DDA15E;fontColor=default;" parent="1" source="QMHYmS7PciH-9QfhDvw--1" target="QMHYmS7PciH-9QfhDvw--18" edge="1">
          <mxGeometry width="50" height="50" relative="1" as="geometry">
            <mxPoint x="120" y="340" as="sourcePoint" />
            <mxPoint x="253" y="434" as="targetPoint" />
          </mxGeometry>
        </mxCell>
        <mxCell id="QMHYmS7PciH-9QfhDvw--28" value="&lt;div&gt;precedes&lt;/div&gt;" style="endArrow=open;endSize=12;dashed=1;html=1;rounded=0;exitX=0.722;exitY=0.975;exitDx=0;exitDy=0;entryX=0.5;entryY=0;entryDx=0;entryDy=0;exitPerimeter=0;labelBackgroundColor=none;strokeColor=#DDA15E;fontColor=#000000;" parent="1" source="QMHYmS7PciH-9QfhDvw--17" target="QMHYmS7PciH-9QfhDvw--18" edge="1">
          <mxGeometry width="160" relative="1" as="geometry">
            <mxPoint x="458" y="364" as="sourcePoint" />
            <mxPoint x="355" y="424" as="targetPoint" />
          </mxGeometry>
        </mxCell>
        <mxCell id="QMHYmS7PciH-9QfhDvw--30" value="Kezdés" style="ellipse;whiteSpace=wrap;html=1;labelBackgroundColor=none;fillColor=#BC6C25;strokeColor=#DDA15E;fontColor=#FEFAE0;rounded=0;" parent="1" vertex="1">
          <mxGeometry x="174" y="670" width="120" height="80" as="geometry" />
        </mxCell>
        <mxCell id="QMHYmS7PciH-9QfhDvw--33" value="Következő" style="ellipse;whiteSpace=wrap;html=1;labelBackgroundColor=none;fillColor=#BC6C25;strokeColor=#DDA15E;fontColor=#FEFAE0;rounded=0;" parent="1" vertex="1">
          <mxGeometry x="10" y="585" width="120" height="80" as="geometry" />
        </mxCell>
        <mxCell id="QMHYmS7PciH-9QfhDvw--34" value="" style="endArrow=none;html=1;rounded=0;entryX=0.458;entryY=-0.025;entryDx=0;entryDy=0;entryPerimeter=0;labelBackgroundColor=none;strokeColor=#DDA15E;fontColor=default;" parent="1" source="QMHYmS7PciH-9QfhDvw--1" target="QMHYmS7PciH-9QfhDvw--30" edge="1">
          <mxGeometry width="50" height="50" relative="1" as="geometry">
            <mxPoint x="120" y="340" as="sourcePoint" />
            <mxPoint x="253" y="434" as="targetPoint" />
          </mxGeometry>
        </mxCell>
        <mxCell id="QMHYmS7PciH-9QfhDvw--35" value="" style="endArrow=none;html=1;rounded=0;entryX=0.229;entryY=0.152;entryDx=0;entryDy=0;entryPerimeter=0;labelBackgroundColor=none;strokeColor=#DDA15E;fontColor=default;" parent="1" source="QMHYmS7PciH-9QfhDvw--1" target="QMHYmS7PciH-9QfhDvw--33" edge="1">
          <mxGeometry width="50" height="50" relative="1" as="geometry">
            <mxPoint x="109" y="360" as="sourcePoint" />
            <mxPoint x="135" y="538" as="targetPoint" />
          </mxGeometry>
        </mxCell>
        <mxCell id="QMHYmS7PciH-9QfhDvw--36" value="&lt;div&gt;precedes&lt;/div&gt;" style="endArrow=open;endSize=12;dashed=1;html=1;rounded=0;exitX=0.5;exitY=1;exitDx=0;exitDy=0;entryX=0.813;entryY=0.048;entryDx=0;entryDy=0;entryPerimeter=0;labelBackgroundColor=none;strokeColor=#DDA15E;fontColor=#000000;" parent="1" source="QMHYmS7PciH-9QfhDvw--18" target="QMHYmS7PciH-9QfhDvw--30" edge="1">
          <mxGeometry width="160" relative="1" as="geometry">
            <mxPoint x="370" y="450" as="sourcePoint" />
            <mxPoint x="466" y="451" as="targetPoint" />
          </mxGeometry>
        </mxCell>
        <mxCell id="QMHYmS7PciH-9QfhDvw--37" value="&lt;div&gt;precedes&lt;/div&gt;" style="endArrow=open;endSize=12;dashed=1;html=1;rounded=0;exitX=0.015;exitY=0.319;exitDx=0;exitDy=0;entryX=1;entryY=1;entryDx=0;entryDy=0;exitPerimeter=0;labelBackgroundColor=none;strokeColor=#DDA15E;fontColor=#000000;" parent="1" source="QMHYmS7PciH-9QfhDvw--30" target="QMHYmS7PciH-9QfhDvw--33" edge="1">
          <mxGeometry width="160" relative="1" as="geometry">
            <mxPoint x="130" y="686" as="sourcePoint" />
            <mxPoint x="72" y="740" as="targetPoint" />
          </mxGeometry>
        </mxCell>
        <mxCell id="QMHYmS7PciH-9QfhDvw--39" value="&lt;div&gt;invokes&lt;/div&gt;" style="endArrow=open;endSize=12;dashed=1;html=1;rounded=0;exitX=0.549;exitY=1.006;exitDx=0;exitDy=0;exitPerimeter=0;entryX=0.5;entryY=0;entryDx=0;entryDy=0;labelBackgroundColor=none;strokeColor=#DDA15E;fontColor=#000000;" parent="1" source="QMHYmS7PciH-9QfhDvw--33" target="QMHYmS7PciH-9QfhDvw--41" edge="1">
          <mxGeometry width="160" relative="1" as="geometry">
            <mxPoint x="186" y="706" as="sourcePoint" />
            <mxPoint x="80" y="770" as="targetPoint" />
          </mxGeometry>
        </mxCell>
        <mxCell id="QMHYmS7PciH-9QfhDvw--41" value="Játék vége" style="ellipse;whiteSpace=wrap;html=1;labelBackgroundColor=none;fillColor=#BC6C25;strokeColor=#DDA15E;fontColor=#FEFAE0;rounded=0;" parent="1" vertex="1">
          <mxGeometry x="20" y="770" width="120" height="80" as="geometry" />
        </mxCell>
        <mxCell id="eauyMy9PP_cRKuSfWRHb-2" value="4x4" style="ellipse;whiteSpace=wrap;html=1;labelBackgroundColor=none;fillColor=#BC6C25;strokeColor=#DDA15E;fontColor=#FEFAE0;rounded=0;" vertex="1" parent="1">
          <mxGeometry x="624" y="202" width="120" height="80" as="geometry" />
        </mxCell>
        <mxCell id="eauyMy9PP_cRKuSfWRHb-3" value="6x6" style="ellipse;whiteSpace=wrap;html=1;labelBackgroundColor=none;fillColor=#BC6C25;strokeColor=#DDA15E;fontColor=#FEFAE0;rounded=0;" vertex="1" parent="1">
          <mxGeometry x="624" y="290" width="120" height="80" as="geometry" />
        </mxCell>
        <mxCell id="eauyMy9PP_cRKuSfWRHb-4" value="8x8" style="ellipse;whiteSpace=wrap;html=1;labelBackgroundColor=none;fillColor=#BC6C25;strokeColor=#DDA15E;fontColor=#FEFAE0;rounded=0;" vertex="1" parent="1">
          <mxGeometry x="624" y="378" width="120" height="80" as="geometry" />
        </mxCell>
        <mxCell id="eauyMy9PP_cRKuSfWRHb-5" value="&lt;div&gt;includes&lt;/div&gt;" style="endArrow=open;endSize=12;dashed=1;html=1;rounded=0;labelBackgroundColor=none;strokeColor=#DDA15E;fontColor=#000000;entryX=-0.017;entryY=0.638;entryDx=0;entryDy=0;entryPerimeter=0;" edge="1" parent="1" target="eauyMy9PP_cRKuSfWRHb-4">
          <mxGeometry width="160" relative="1" as="geometry">
            <mxPoint x="544" y="365" as="sourcePoint" />
            <mxPoint x="444" y="470" as="targetPoint" />
          </mxGeometry>
        </mxCell>
        <mxCell id="eauyMy9PP_cRKuSfWRHb-6" value="&lt;div&gt;includes&lt;/div&gt;" style="endArrow=open;endSize=12;dashed=1;html=1;rounded=0;labelBackgroundColor=none;strokeColor=#DDA15E;fontColor=#000000;exitX=1;exitY=0.5;exitDx=0;exitDy=0;" edge="1" parent="1" source="QMHYmS7PciH-9QfhDvw--6" target="eauyMy9PP_cRKuSfWRHb-3">
          <mxGeometry width="160" relative="1" as="geometry">
            <mxPoint x="554" y="375" as="sourcePoint" />
            <mxPoint x="632" y="439" as="targetPoint" />
          </mxGeometry>
        </mxCell>
        <mxCell id="eauyMy9PP_cRKuSfWRHb-7" value="&lt;div&gt;includes&lt;/div&gt;" style="endArrow=open;endSize=12;dashed=1;html=1;rounded=0;labelBackgroundColor=none;strokeColor=#DDA15E;fontColor=#000000;entryX=0;entryY=0.538;entryDx=0;entryDy=0;entryPerimeter=0;exitX=0.758;exitY=0.1;exitDx=0;exitDy=0;exitPerimeter=0;" edge="1" parent="1" source="QMHYmS7PciH-9QfhDvw--6" target="eauyMy9PP_cRKuSfWRHb-2">
          <mxGeometry width="160" relative="1" as="geometry">
            <mxPoint x="564" y="385" as="sourcePoint" />
            <mxPoint x="642" y="449" as="targetPoint" />
          </mxGeometry>
        </mxCell>
      </root>
    </mxGraphModel>
  </diagram>
</mxfile>
